<?xml-stylesheet type="text/css" href="style.css" charset="utf-8"?>

<svg xmlns="http://www.w3.org/2000/svg"
     xmlns:xlink="http://www.w3.org/1999/xlink"
     width="800" height="500"
     viewBox="0 0 1024 "
     version="1.1"
     id="view">
  <title>Moon exploration</title>
  <rect id="fadeOut" x="0" y="0" width="800" height="500"/>
  <defs>

    <g id="antenne_alien">
      <path d="M 200 160 a 20 25 0 0 0 50 50" style="fill: none; stroke: green; stroke-width: 4px; stroke-line join: bevel"/>
      <circle cy="160" cx="200" r="15" style="fill: green"/>
      <circle cy="160" cx="200" r="11" style="fill: white"/>
      <circle cy="160" cx="200" r="7"/>
    </g>

    <g id="astroRunningOut">
        <use xlink:href="#astronaute"  transform="scale(0.1)">
            <animateMotion begin="45" dur="12s" repeatCount="0" rotate="auto">
                <mpath xlink:href="#astroPath"/>
            </animateMotion>
            <animate begin="0" attributeType="XML" fill-opacity="0"/>
        </use>
    </g>

    <g id="head_alien">
      <circle cy="250" cx="250" r="50" style="fill: green"/>
      <use transform="matrix(1,0,0,1,0,0)" xlink:href="#antenne_alien"/>
      <use xlink:href="#antenne_alien" transform="translate(500) scale(-1,1) matrix(1,0,0,1,0,0)"/>
      <use transform="matrix(1,0,0,1,0,0)" xlink:href="#mouth_alien"/>
      <circle cy="222" cx="250" r="20"/>
      <circle cy="232" cx="250" r="25" style="fill: green"/>
      <circle cy="230" cx="250" r="20" style="fill: white"/>
      <circle cy="230" cx="250" r="16"/>
    </g>

    <g id="mouth_alien">
      <circle cy="285" cx="250" r="20" style="fill: green"/>
      <circle cy="285" cx="250" r="16" style="fill: white"/>
    </g>

    <g id="body_alien">
      <use xlink:href="#foot_alien" transform="translate(-25,15) matrix(1,0,0,1,0,0)" />
      <use xlink:href="#foot_alien" transform="translate(25,15) matrix(1,0,0,1,0,0)" />
      <use xlink:href="#hand_alien" transform="translate(10,-50) matrix(1,0,0,1,0,0)" />
      <use xlink:href="#hand_alien" transform="translate(-110,-50) matrix(1,0,0,1,0,0)" />
      <ellipse cx="250" cy="300" rx="35" ry="35" fill="darkgreen"/>
    </g>

    <g id="foot_alien">
      <ellipse cx="250" cy="340" rx="8" ry="15" fill="green"/>
    </g>

    <g id="hand_alien">
      <circle cx="300" cy="350" r="10" fill="green"/>
    </g>

    <g id="alien">
        <use xlink:href="#body_alien" transform="translate(-25,15) matrix(1,0,0,1,0,0)" />
        <use xlink:href="#head_alien" transform="translate(-25,15) matrix(1,0,0,1,0,0)" />
        <use xlink:href="#mouth_alien" transform="translate(-25,15) matrix(1,0,0,1,0,0)" />
    </g>

    <g id="AhBubble">
        <ellipse rx="50" ry="30" cx="80" cy="100" style="fill:white"/>
        <text x="60" y="100" >    AH !!! </text>
    </g>

    <g id = "fire">
      <g>
      	<path fill-rule="evenodd" clip-rule="evenodd" fill="#FBB417" d="M159.83,485.671c-4.659-10.22-6.479-21.151-7.72-32.165
      		c-0.792-7.04-0.653-14.185-1.155-21.239c-1.071-15.067,2.69-28.958,8.483-42.565c4.359-10.24,7.958-20.688,7.379-33.102
      		c8.755,10.219,10.061,23.481,18.46,33.537c-3.478-21.143,8.616-36.418,17.495-52.769c9.958-18.337,18.387-37.253,21.939-57.99
      		c0.801-4.679,0.976-9.466,1.479-14.619c4.574,2.736,7.657,6.966,12,10.546c4.211-17.13,15.825-29.321,25.646-42.608
      		c14.431-19.524,22.894-41.688,28.894-64.955c0.268-1.039,0.54-2.081,0.882-3.096c0.072-0.215,0.458-0.326,1.066-0.727
      		c4.075,9.182,9.239,17.679,14.84,25.924c11.113,16.356,24.713,30.744,36.662,46.436c17.744,23.304,32.793,48.118,41.592,76.285
      		c3.732,11.947,5.674,24.226,5.568,36.85c2.705-7.705,0.639-16.26,4.09-23.738c3.391-7.345,8.859-13.029,15.99-18.558
      		c-7.92,17.446-2.986,33.413,2.15,49.214c3.941,12.116,9.328,23.748,12.543,36.123c4.074,15.688,7.443,31.473,5.596,47.854
      		c-0.262,2.323-0.756,4.62-1.32,8.003c2.395-2.977,3.027-5.658,3.93-8.144c1.627-4.489,3.172-9.02,5.637-13.119
      		c1.174-1.952,2.699-3.787,4.4-5.301c1.678-1.492,4.055-3.674,5.979-2.529c1.686,1.003-0.674,3.458-0.887,5.347
      		c-0.447,3.969-0.982,7.93-1.48,11.894c-5.982,9.725-8.568,20.645-10.582,31.644c-2.084,11.38-6.469,21.787-12.422,31.493
      		c-6.227,10.151-16.719,14.946-27.041,19.736c-1.604,0.743-2.295-0.163-2.346-1.704c-0.045-1.387-0.041-2.776-0.037-4.166
      		c0.002-1.342-0.521-2.502-1.658-3.116c-1.553-0.838-2.166,0.752-2.932,1.544c-6.924,7.171-15.01,9.365-24.729,6.682
      		c-10.463-2.89-14.545-1.143-20.73,7.75c-0.615,0.885-1.064,2.019-1.898,2.596c-3.682,2.553-1.568,3.649,1.055,4.701
      		c-0.252,0.384-0.504,0.769-0.756,1.152c-3.516-0.027-7.105-0.975-10.471,0.852c-8.105-5.273-16.391-6.051-24.908-0.987
      		c-1.73-1.487-3.945-1.678-6.004-1.836c-13.136-1.007-26.147-3.199-39.131-5.124c-19.97-2.96-39.779-7.212-58.833-14.31
      		c-15.456-5.758-30.343-12.457-42.617-23.858c-0.818-0.761-1.643-1.417-2.86-1.072c0,0,0.102-0.016,0.103-0.018
      		c0.146-0.853,0.037-1.593-0.87-1.982l0.056,0.051C160.18,486.216,160.005,485.944,159.83,485.671z M404.242,416.88
      		c0.275-16.697-3.842-31.912-14.025-45.333c-2.064-2.721-3.074-3.532-4.537,0.394c-1.68,4.512-4.008,8.657-9.209,10.184
      		c-1.971,0.578-2.871,0.305-3.037-1.899c-0.238-3.209-0.445-6.451-1.082-9.594c-4.514-22.25-14.615-42.045-27.762-60.237
      		c-9.824-13.594-18.574-27.777-26.541-42.484c-6.639-12.253-12.59-24.891-20.401-36.483c-0.552-0.819-0.829-2.274-2.139-2.163
      		c-1.612,0.137-1.457,1.655-1.783,2.821c-3.588,12.824-9.083,24.817-15.776,36.303c-12.058,20.689-26.928,39.51-39.581,59.807
      		c-7.646,12.266-14.853,24.739-19.381,38.533c-3.215,9.797-5.24,19.869-5.767,30.204c-0.038,0.735,0.117,1.659-0.854,1.916
      		c-0.858,0.228-1.527-0.387-1.905-1.01c-1.789-2.945-4.789-4.878-6.629-7.672c-2.686-4.077-3.922-2.79-5.12,0.822
      		c-0.236,0.711-0.899,1.288-1.098,2.002c-4.163,14.928-5.861,29.961-4.047,45.546c1.936,16.625,8.862,30.516,20.255,42.353
      		c6.296,6.541,13.693,11.859,21.523,16.383c13.421,7.754,27.927,11.495,43.428,8.973c9.555-1.555,18.995-3.23,28.762-3.32
      		c10.895-0.101,21.701,1.746,32.688,0.299c12.643-1.665,24.285-4.939,33.707-14.028C394.436,469.417,403.594,444.931,404.242,416.88
      		z"/>
      	<path fill-rule="evenodd" clip-rule="evenodd" fill="#F57F20" d="M430.904,516.98c-5.936,9.745-14.277,16.752-24.428,21.822
      		c-3.729,1.863-7.059,2.331-10.592-0.365c-3.477-2.655-6.387-3.234-10.174,0.676c-5.068,5.229-11.652,5.019-17.854,1.366
      		c-6.584-3.877-13.447-6.712-21.209-6.856c-2.623-1.052-4.736-2.148-1.055-4.701c0.834-0.577,1.283-1.711,1.898-2.596
      		c6.186-8.893,10.268-10.64,20.73-7.75c9.719,2.684,17.805,0.489,24.729-6.682c0.766-0.792,1.379-2.382,2.932-1.544
      		c1.137,0.614,1.66,1.774,1.658,3.116c-0.004,1.39-0.008,2.779,0.037,4.166c0.051,1.541,0.742,2.447,2.346,1.704
      		c10.322-4.79,20.814-9.585,27.041-19.736c5.953-9.706,10.338-20.113,12.422-31.493c2.014-10.999,4.6-21.919,10.582-31.644
      		c1.6,23.424-0.715,46.178-11.723,67.396C435.939,508.306,433.359,512.611,430.904,516.98z"/>
      	<path fill-rule="evenodd" clip-rule="evenodd" fill="#F57F20" d="M288.392,548.491c-4.495-15.458-12.328-17.534-26.333-17.461
      		c-5.778,0.029-11.586,1.205-17.314,2.229c-5.435,0.973-10.781,2.438-16.171,3.668c-2.904,0.662-5.734,0.592-8.636-0.347
      		c-18.612-6.02-35.156-15.393-48.705-29.698c-3.99-5.815-8.052-11.593-10.166-18.444c1.216-0.344,2.041,0.313,2.859,1.073
      		c12.274,11.401,27.162,18.101,42.617,23.858c19.054,7.098,38.863,11.35,58.833,14.31c12.984,1.925,25.996,4.117,39.131,5.124
      		c2.059,0.158,4.273,0.349,6.004,1.836c-4.732,4.143-8.811,8.894-12.753,13.769C294.638,548.436,291.515,548.463,288.392,548.491z"
      		/>
      	<path fill-rule="evenodd" clip-rule="evenodd" fill="#F57F20" d="M160.3,486.439c0.907,0.39,1.016,1.13,0.87,1.982
      		C160.205,488.057,160.319,487.218,160.3,486.439z"/>
      	<path fill-rule="evenodd" clip-rule="evenodd" fill="#F57F20" d="M159.83,485.671c0.175,0.272,0.351,0.545,0.526,0.818
      		C160.18,486.217,160.005,485.944,159.83,485.671z"/>
      	<path fill-rule="evenodd" clip-rule="evenodd" fill="#F57F20" d="M345.893,534.775c-0.561,5.071-0.689,10.066,2.539,14.473
      		c-0.576,0.137-1.152,0.272-1.727,0.41c-2.926-5.349-6.814-9.923-11.283-14.032C338.787,533.8,342.377,534.748,345.893,534.775z"/>
      	<path fill-rule="evenodd" clip-rule="evenodd" fill="#F57F20" d="M404.242,416.88c-0.648,28.051-9.807,52.538-30.311,72.313
      		c-9.422,9.089-21.064,12.363-33.707,14.028c-10.986,1.447-21.793-0.399-32.688-0.299c-9.767,0.09-19.207,1.766-28.762,3.32
      		c-15.501,2.522-30.007-1.219-43.428-8.973c-7.83-4.523-15.228-9.842-21.523-16.383c-11.394-11.837-18.319-25.728-20.255-42.353
      		c-1.814-15.585-0.116-30.618,4.047-45.546c0.199-0.714,0.862-1.291,1.098-2.002c1.198-3.611,2.434-4.899,5.12-0.822
      		c1.84,2.794,4.841,4.727,6.629,7.672c0.378,0.623,1.047,1.238,1.905,1.01c0.97-0.257,0.816-1.181,0.854-1.916
      		c0.527-10.334,2.552-20.407,5.767-30.204c4.528-13.794,11.735-26.267,19.381-38.533c12.652-20.296,27.523-39.117,39.581-59.807
      		c6.694-11.486,12.188-23.479,15.776-36.303c0.326-1.166,0.171-2.684,1.783-2.821c1.31-0.111,1.587,1.344,2.139,2.163
      		c7.811,11.593,13.762,24.23,20.401,36.483c7.967,14.708,16.717,28.891,26.541,42.484c13.146,18.192,23.248,37.987,27.762,60.237
      		c0.637,3.143,0.844,6.385,1.082,9.594c0.166,2.204,1.066,2.477,3.037,1.899c5.201-1.526,7.529-5.671,9.209-10.184
      		c1.463-3.925,2.473-3.115,4.537-0.394C400.4,384.968,404.518,400.183,404.242,416.88z M275.324,350.771
      		c-2.128,5.055-3.777,9.467-5.81,13.696c-4.051,8.429-8.553,16.648-12.429,25.154c-4.873,10.695-6.879,22.206-8.648,33.742
      		c-1.438,9.375-1.135,18.871,1.591,27.771c6.017,19.641,21.565,29.931,39.511,37.085c12.292,4.899,23.623,0.601,34.169-5.541
      		c14.742-8.585,25.824-20.684,32.186-36.702c2.275-5.732,3.736-11.61,2.041-17.948c-4.227-15.805-10.646-30.78-17.529-45.517
      		c-11.133-23.843-23.533-47.02-39.043-68.394c-0.42-0.578-0.375-1.622-1.428-1.444c-0.842,0.142-1.299,0.875-1.361,1.662
      		c-0.611,7.701-4.095,14.351-7.389,21.133c-3.876,7.983-8.846,15.522-10.152,25.778C278.81,357.166,277.231,354.272,275.324,350.771
      		z"/>
      	<path fill-rule="evenodd" clip-rule="evenodd" fill="#FEFEFE" d="M288.392,548.491c3.123-0.027,6.246-0.055,9.368-0.083"/>
      	<path fill-rule="evenodd" clip-rule="evenodd" fill="#EF4A23" d="M275.324,350.771c1.908,3.501,3.486,6.395,5.709,10.473
      		c1.306-10.256,6.275-17.794,10.152-25.778c3.294-6.783,6.778-13.433,7.389-21.133c0.063-0.786,0.52-1.52,1.361-1.662
      		c1.053-0.177,1.008,0.867,1.428,1.444c15.51,21.374,27.91,44.551,39.043,68.394c6.883,14.737,13.303,29.712,17.529,45.517
      		c1.695,6.338,0.234,12.216-2.041,17.948c-6.361,16.019-17.443,28.117-32.186,36.702c-10.547,6.142-21.877,10.44-34.169,5.541
      		c-17.946-7.154-33.495-17.444-39.511-37.085c-2.726-8.899-3.028-18.396-1.591-27.771c1.769-11.536,3.775-23.047,8.648-33.742
      		c3.875-8.506,8.377-16.725,12.429-25.154C271.546,360.238,273.196,355.826,275.324,350.771z"/>
      </g>
    </g>

    <g id="astronaute">
      <ellipse transform="rotate(10)" cx="185" cy="280"  rx="15" ry="40"/> <!-- jambe gauche -->
      <ellipse cx="150" cy="166"  rx="35" ry="35"/> <!-- tete -->
      <ellipse transform="rotate(10)" cx="161.2" cy="192.4"  rx="11" ry="23"/> <!-- bras gauche -->
      <ellipse cx="155" cy="215"  rx="9" ry="17" transform="rotate(10)"/> <!-- main gauche -->
      <ellipse cx="150" cy="235"  rx="25" ry="50.5"/> <!-- haut -->
      <ellipse cx="135" cy="240"  rx="11" ry="23" transform="rotate(-10)"/> <!--bras droit-->
      <ellipse cx="135" cy="270"  rx="9" ry="17" transform="rotate(-10)"/> <!-- main droie -->
      <ellipse cx="115" cy="330"  rx="15" ry="40" transform="rotate(-10)"/>
      <rect x="125" y="145" width="50" height="35" fill="rgb(255,255,255)"/>
    </g>

    <g id = "plaque_métalique">
      <rect width="25" height="75" fill="rgb(0,0,0)" />
      <rect width="21" height="75" x="2" fill="rgb(150,150,150)" />
      <circle id = "point" cx="12.5" r="2" cy="20" fill="rgb(150,150,150)" stroke="black" stroke-width="3"/>
      <circle id = "point" cx="12.5" r="2" cy="55" fill="rgb(150,150,150)" stroke="black" stroke-width="3"/>
    </g>
    <g id = "hublot">
      <circle id = "cercle_métalique" cx="0" r="65" cy="250" fill="rgb(150,150,150)" stroke="black" stroke-width="3"/>
      <circle id = "vitre" cx="0" r="50" cy="250" fill="rgb(57,87,255)" />
      <circle id = "reflet" cx="25" r="10" cy="235" fill="rgb(57,182,255)" />
      <circle id = "point" cx="0" r="2" cy="194" fill="rgb(150,150,150)" stroke="black" stroke-width="3"/>
      <circle id = "point" cx="-43" r="2" cy="213" fill="rgb(150,150,150)" stroke="black" stroke-width="3"/>
      <circle id = "point" cx="43" r="2" cy="213" fill="rgb(150,150,150)" stroke="black" stroke-width="3"/>
      <circle id = "point" cx="57" r="2" cy="250" fill="rgb(150,150,150)" stroke="black" stroke-width="3"/>
      <circle id = "point" cx="-57" r="2" cy="250" fill="rgb(150,150,150)" stroke="black" stroke-width="3"/>
      <circle id = "point" cx="-43" r="2" cy="286" fill="rgb(150,150,150)" stroke="black" stroke-width="3"/>
      <circle id = "point" cx="43" r="2" cy="286" fill="rgb(150,150,150)" stroke="black" stroke-width="3"/>
      <circle id = "point" cx="0" r="2" cy="306" fill="rgb(150,150,150)" stroke="black" stroke-width="3"/>
    </g>
    <g id = "base">
      <path id = "wings" d="M -75 900 q -100 -200 25 -300 l 50 100 q -75 75 -75 200" stroke="black" stroke-width="3" fill="rgb(222,222,222)" transform="rotate(25,50,750)"/>
      <path id = "wings" d="M -75 900 q -100 -200 25 -300 l 50 100 q -75 75 -75 200" stroke="black" stroke-width="3" fill="rgb(222,222,222)" transform="rotate(-25,-50,750) scale(-1,1)"/>
    </g>
    <g id = "fusée espace">
      <ellipse cx="0" cy="355" rx="100" ry="350" fill="rgb(222,222,222)" stroke="black" stroke-width="3"/>
      <path d="M -75 125 q 75 -300 150 0 l -150 0" fill="rgb(214,1,0)" stroke="black" stroke-width="3"/>
      <polygon id = "propler" points="150,50 250,50 300,350 100,350" fill="rgb(222,222,222)" stroke="black" stroke-width="6" transform="scale(0.5,0.5) translate(-200,1300)"/>
      <use xlink:href = "#plaque_métalique" x = "-12.5" y = "200"/>
      <use xlink:href = "#plaque_métalique" x = "-12.5" y = "125"/>
      <use xlink:href = "#plaque_métalique" x = "-12.5" y = "360"/>
      <use xlink:href = "#plaque_métalique" x = "-12.5" y = "435"/>
      <use xlink:href = "#plaque_métalique" x = "-12.5" y = "510"/>
      <use xlink:href = "#plaque_métalique" x = "-12.5" y = "585"/>
      <use xlink:href = "#plaque_métalique" x = "-12.5" y = "625" transform=" rotate(-90 2 665)"/>
      <use xlink:href = "#hublot" x = "0" y = "50"/>
      <use xlink:href = "#fire" x = "0" y = "0" transform = "rotate(-180 150 800)">
          <animate attributeType="XML" attributeName="y" values="400;410;390;410;400"
            begin="0" dur="1s" repeatCount="indefinite"/>
          <animate attributeType="XML" attributeName="x" values="0;5;-5;5;0;5;-5"
            begin="0" dur="1s" repeatCount="indefinite"/>
      </use>
    </g>

    <g id = "fusée_landing">
      <ellipse cx="0" cy="355" rx="100" ry="350" fill="rgb(222,222,222)" stroke="black" stroke-width="3"/>
      <path d="M -75 125 q 75 -300 150 0 l -150 0" fill="rgb(214,1,0)" stroke="black" stroke-width="3"/>
      <use xlink:href = "#plaque_métalique" x = "-12.5" y = "200"/>
      <use xlink:href = "#plaque_métalique" x = "-12.5" y = "125"/>
      <use xlink:href = "#plaque_métalique" x = "-12.5" y = "360"/>
      <use xlink:href = "#plaque_métalique" x = "-12.5" y = "435"/>
      <use xlink:href = "#plaque_métalique" x = "-12.5" y = "510"/>
      <use xlink:href = "#hublot" x = "0" y = "50"/>
      <path id="foot" d="M -100 650 l 200 0 l 75 50 l 25 100 l 25 0 l 5 1 l 5 2 l 5 3 l 5 4 l 5 5 l -125 0 l 5 -5 l 5 -4 l 5 -3 l 5 -2 l 5 -1 l 25 0 l -22 -90 l -65 -42 l -50 15 l -15 15 l -25 10" fill="grey" stroke="black" stroke-width="3"/>
      <use xlink:href = "#foot" transform="scale(-1,1)"/>
      <use xlink:href = "#plaque_métalique" x = "-12.5" y = "585"/>
      <use xlink:href = "#plaque_métalique" x = "-8" y = "295" transform="rotate(-90 2 665) scale(2,2)"/>
    </g>

    <g id = "fusée terre">
      <use xlink:href = "#base" x = "0" y = "0" transform="scale(1,1)"/>
      <ellipse cx="0" cy="355" rx="100" ry="350" fill="rgb(222,222,222)" stroke="black" stroke-width="3"/>
      <path d="M -75 125 q 75 -300 150 0 l -150 0" fill="rgb(214,1,0)" stroke="black" stroke-width="3"/>
      <polygon id = "propler" points="150,50 250,50 300,350 100,350" fill="rgb(222,222,222)" stroke="black" stroke-width="6" transform="scale(0.5,0.5) translate(-200,1300)"/>
      <use xlink:href = "#plaque_métalique" x = "-12.5" y = "200"/>
      <use xlink:href = "#plaque_métalique" x = "-12.5" y = "125"/>
      <use xlink:href = "#plaque_métalique" x = "-12.5" y = "360"/>
      <use xlink:href = "#plaque_métalique" x = "-12.5" y = "435"/>
      <use xlink:href = "#plaque_métalique" x = "-12.5" y = "510"/>
      <use xlink:href = "#plaque_métalique" x = "-12.5" y = "585"/>
      <use xlink:href = "#plaque_métalique" x = "-12.5" y = "625" transform="rotate(-90 -325 1000) scale(2,2)"/>
      <use xlink:href = "#hublot" x = "0" y = "50"/>
      <use xlink:href = "#fire" x = "0" y = "0" transform = "rotate(-180 90 550) scale(0.6,0.6)"/>
    </g>

    <g id = "proplerall">
      <use xlink:href = "#base" x = "0" y = "0" transform="scale(1,1)"/>
      <polygon id = "propler" points="150,50 250,50 300,350 100,350" fill="rgb(222,222,222)" stroke="black" stroke-width="6" transform="scale(0.5,0.5) translate(-200,1300)"/>
      <use xlink:href = "#plaque_métalique" x = "-12.5" y = "625" transform="rotate(-90 -325 1000) scale(2,2)"/>
    </g>

    <circle id="stars" cy="2" cx="2" r="2" fill="white"/>
    <g id="earth">
      <circle cy="50" cx="50" r="50" fill="blue"/>
      <path d="M 50,0 C 75,0 100,25 100,50 S 75,75 50,50 S 60,50 70,50 S 80,25 50,0" fill="green"/>
      <path d="M 50,100 C 75,100 80,90 85,85" fill="white"/>
      <ellipse cy="25" cx="60" rx="5" ry="7" fill="green"/>
      <ellipse cy="55" cx="25" rx="10" ry="20" fill="green" transform="rotate(-30 25 55)"/>
    </g>

    <g id="moon">
      <circle cy="30" cx="30" r="30" fill="grey"/>
      <circle cy="20" cx="20" r="5" fill="rgb(60,60,60)"/>
      <circle cy="50" cx="25" r="5" fill="rgb(70,70,70)"/>
      <circle cy="30" cx="50" r="5" fill="rgb(75,75,75)"/>
      <circle cy="30" cx="40" r="10" fill="rgb(100, 100, 100)"/>
      <circle cy="10" cx="30" r="5" fill="rgb(100, 100, 100)"/>
      <circle cy="40" cx="10" r="5" fill="rgb(100, 100, 100)"/>
    </g>

    <g id="sceneStar">
      <use xlink:href="#stars" transform="translate(110, 307)" />
      <use xlink:href="#stars" transform="translate(400, 106)" />
      <use xlink:href="#stars" transform="translate(750, 300)" />
      <use xlink:href="#stars" transform="translate(68, 37)" />
      <use xlink:href="#stars" transform="translate(700, 150)" />
      <use xlink:href="#stars" transform="translate(650, 40)" />
      <use xlink:href="#stars" transform="translate(450, 300)" />
      <use xlink:href="#stars" transform="translate(400, 250)" />
      <use xlink:href="#stars" transform="translate(700, 400)" />
      <use xlink:href="#stars" transform="translate(49, 444)" />
      <use xlink:href="#stars" transform="translate(68, 357)" />
      <use xlink:href="#stars" transform="translate(780, 50)" />
      <use xlink:href="#stars" transform="translate(280, 10)" />
      <use xlink:href="#stars" transform="translate(120, 210)" />
    </g>

    <g id="moonZoom">
      <path transform="translate(0,-100)" fill="grey" d="M0 500 c 300 -50, 500 -50, 800 0
            l 0,500 l -800,0 l 0-500" />
      <ellipse cx="200" cy="485" rx="100" ry="50" fill="rgb(75,75,75)" />
      <ellipse cx="400" cy="425" rx="25" ry="10" fill="rgb(70,70,70)" />
      <ellipse cx="700" cy="475" rx="50" ry="35" fill="rgb(60,60,60)" />
    </g>

  </defs>

  <path d="M515 320
    C 320 348 37.5 298.5 37.5 150
    C 37.5 1.5 225 27 225 150
    C 225 249 112.5 222 112.5 150"
    fill-opacity="0"
    id="motionPath"/>

  <path d="M330 325
    c 50 -150 100 -150 250 -250"
    fill-opacity="0"
    id="motionPathprop"/>

<!-- annimation -->

<animateTransform xlink:href="#fadeOut"
  attributeName="XML" type="fill-opacity" from="0" to="1"
  begin="14" dur="1s" repeatCount="1" />

<animateTransform xlink:href="#fusée espace"
  attributeName="transform" type="rotate" values="0,0,0;-90,0,0"
  begin="12" dur="2s" repeatCount="1" />

<animateTransform xlink:href="#proplerall"
  attributeName="transform" type="rotate" values="0,0,0;150,0,0"
  begin="4" dur="10s" repeatCount="1" />

<animateTransform xlink:href="#astronaute"
  attributeName="transform" type="rotate" values="0,0,0;360,0,0"
  begin="45" dur="15s"/>

<animateTransform xlink:href="#astronaute"
  attributeName="transform" type="rotate" values="0,0,0;-90,0,0"
  begin="41" dur="4s"/>

<animateTransform xlink:href="#view"
  attributeName="transform" type="scale" values="1.01,1.01;1.01,1;1,1.01;1,1"
  begin="14" dur="0.05" repeatCount="indefinite"/>

<animateTransform xlink:href="#view"
  attributeName="transform" type="scale" values="1.01,1.01;1.01,1;1,1.01;1,1"
  begin="25" dur="0" repeatCount="indefinite"/>

<!-- scene 1 -->
  <use xlink:href="#stars" transform="translate(330, 357)" />
  <use xlink:href="#stars" transform="translate(450, 156)" />
  <use xlink:href="#stars" transform="translate(500, 300)" />
  <use xlink:href="#stars" transform="translate(650, 400)" />
  <use xlink:href="#stars" transform="translate(700, 50)" />
  <use xlink:href="#stars" transform="translate(280, 100)" />
  <use xlink:href="#stars" transform="translate(100, 250)" />
  <use xlink:href="#earth" transform="translate(550, 250)" />
  <use xlink:href="#moon" transform="translate(140, 120)" />


  <use xlink:href="#fusée terre" fill-opacity="0" stroke-opacity="0" transform="scale(0.05,0.05) translate(10700, 6300) rotate(-100,0,0)" >
    <animate attributeType="XML" attributeName="fill-opacity" values="1"
        begin="0" dur="2s"/>
    <animate attributeType="XML" attributeName="stroke-opacity" values="1"
        begin="0" dur="2s"/>
  </use>


  <use xlink:href="#proplerall" fill-opacity="0" transform="scale(0.05,0.05) rotate(-90,0,0)" >
    <animate attributeType="XML" attributeName="fill-opacity" values="1"
        begin="4" dur="10s"/>
    <animateMotion begin="4s" dur="10s" repeatCount="0">
      <mpath xlink:href="#motionPathprop" />
    </animateMotion>
  </use>


  <use xlink:href="#fusée espace" fill-opacity="0" transform="scale(0.05,0.05) rotate(90,0,0)" >
    <animate attributeType="XML" attributeName="fill-opacity" values="1"
        begin="4" dur="10s"/>
    <animateMotion begin="2s" dur="12s" repeatCount="0" rotate="auto">
      <mpath xlink:href="#motionPath" />
    </animateMotion>
  </use>


  <use xlink:href="#fusée terre" fill-opacity="0" stroke-opacity="0" transform="scale(0.05,0.05) rotate(90,0,0)" >
    <animate attributeType="XML" attributeName="fill-opacity" values="1"
        begin="2" dur="2s"/>
    <animate attributeType="XML" attributeName="stroke-opacity" values="1"
        begin="2" dur="2s"/>
    <animateMotion begin="2s" dur="12s" repeatCount="0" rotate="auto">
      <mpath xlink:href="#motionPath" />
    </animateMotion>
  </use>


  <rect id="fadeOut" x="0" y="0" width="800" height="500" fill-opacity="0" >
    <animate attributeType="XML" attributeName="fill-opacity" from="1" to="0"
      begin="0" dur="2s"/>
  </rect>


  <!-- scene 2 -->


  <rect id="fadeOut" x="0" y="0" width="800" height="500" fill-opacity="0" >
    <animate attributeType="XML" attributeName="fill-opacity" from="0" to="1"
      begin="13" dur="1s"/>
    <animate attributeType="XML" attributeName="fill-opacity" values="1"
      begin="14" dur="16s"/>
  </rect>

  <use xlink:href="#sceneStar" fill-opacity="0">
    <animate attributeType="XML" attributeName="fill-opacity" from="0" to="1"
      begin="14" dur="1s"/>
    <animate attributeType="XML" attributeName="fill-opacity" values="1"
      begin="15" dur="15s"/>
  </use>

  <use xlink:href="#earth" fill-opacity="0" transform=" scale(1.5,1.5) translate(150, 50) rotate(90,0,0)" >
    <animate attributeType="XML" attributeName="fill-opacity" from="0" to="1"
      begin="14" dur="1s"/>
    <animate attributeType="XML" attributeName="fill-opacity" values="1"
      begin="15" dur="15s"/>
  </use>

  <use xlink:href="#moonZoom" fill-opacity="0" >
    <animate attributeType="XML" attributeName="fill-opacity" from="0" to="1"
      begin="14" dur="1s"/>
    <animate attributeType="XML" attributeName="fill-opacity" values="1"
      begin="15" dur="15s"/>
    <animate attributeType="XML" attributeName="y" from="300" to="0"
      begin="14" dur="11s"/>
  </use>

  <use xlink:href="#fusée espace" stroke-opacity="0" fill-opacity="0" transform="scale(0.5,0.5) translate(800,50)">
    <animate attributeType="XML" attributeName="fill-opacity" from="0" to="1"
      begin="14" dur="1s"/>
    <animate attributeType="XML" attributeName="fill-opacity" values="1"
      begin="15" dur="10s"/>
    <animate attributeType="XML" attributeName="stroke-opacity" from="0" to="1"
      begin="14" dur="1s"/>
    <animate attributeType="XML" attributeName="stroke-opacity" values="1"
      begin="15" dur="10s"/>
    <animate attributeType="XML" attributeName="y" from="-500" to="0"
      begin="14" dur="6s"/>
  </use>

  <use xlink:href="#fusée_landing" stroke-opacity="0" fill-opacity="0" transform="scale(0.5,0.5) translate(800,50)">
    <animate attributeType="XML" attributeName="y" from="0" to="100"
      begin="25" dur="2s"/>
    <animate attributeType="XML" attributeName="y" values="100"
      begin="27" dur="3s"/>
    <animate attributeType="XML" attributeName="fill-opacity" values="1"
      begin="25" dur="5s"/>
    <animate attributeType="XML" attributeName="stroke-opacity" values="1"
      begin="25" dur="5s"/>
  </use>

  <rect x="0" y="0" width="800" height="500" id="fadeOut" fill-opacity="0" >
    <animate attributeType="XML" attributeName="fill-opacity" from="0" to="1"
      begin="28" dur="1s"/>
    <animate attributeType="XML" attributeName="fill-opacity" values="1"
      begin="29" dur="1s"/>
  </rect>



  <!-- scene 3 -->

  <path id="motionastro" d="M 100 300 q 75 -150 150 0 q 75 -150 150 0" stroke-opacity="0" fill-opacity="0" />
  <path id="astropathgo" d="M 400 300 l -150 -300" stroke-opacity="0" fill-opacity="0" />


  <rect x="0" y="0" width="800" height="500" id="fadeOut" fill-opacity="0" >
      <animate attributeType="XML" attributeName="fill-opacity" values="1"
      begin="30" dur="15s"/>
  </rect>

  <use xlink:href="#sceneStar" fill-opacity="0">
    <animate attributeType="XML" attributeName="fill-opacity" from="0" to="1"
      begin="30" dur="1s"/>
    <animate attributeType="XML" attributeName="fill-opacity" values="1"
      begin="31" dur="14s"/>
  </use>

  <use xlink:href="#moonZoom" fill-opacity="0" >
    <animate attributeType="XML" attributeName="fill-opacity" from="0"  to="1"
      begin="30" dur="1s"/>
    <animate attributeType="XML" attributeName="fill-opacity" values="1"
      begin="31" dur="14s"/>
  </use>

  <use xlink:href="#fusée_landing"  x="600" y="650" transform="scale(0.3)" fill-opacity="0" stroke-opacity="0">
    <animate attributeType="XML" attributeName="fill-opacity" from="0"  to="1"
      begin="30" dur="1s"/>
    <animate attributeType="XML" attributeName="fill-opacity" values="1"
      begin="31" dur="14s"/>
    <animate attributeType="XML" attributeName="stroke-opacity" from="0"  to="1"
      begin="30" dur="1s"/>
    <animate attributeType="XML" attributeName="stroke-opacity" values="1"
      begin="31" dur="14s"/>
  </use>

  <use xlink:href="#astronaute" transform="scale(0.5,0.5)" fill-opacity="0" >
    <animate attributeType="XML" attributeName="fill-opacity" values="1"
      begin="31" dur="14s"/>
    <animateMotion begin="31s" dur="8s" repeatCount="0" fill="freeze">
      <mpath xlink:href="#motionastro" />
    </animateMotion>
    <animateMotion begin="41s" dur="4s" repeatCount="0">
      <mpath xlink:href="#astropathgo" />
    </animateMotion>
  </use>

  <use xlink:href="#alien" x="1000" y="600" transform="scale(0.5)" stroke-opacity="0" fill-opacity="0" >
    <animate attributeType="XML" attributeName="fill-opacity" from="0" to="1"
        begin="40" dur="1s"/>
    <animate attributeType="XML" attributeName="fill-opacity" values="1"
        begin="41" dur="4s"/>
    <animate attributeType="XML" attributeName="stroke-opacity" from="0" to="1"
        begin="40" dur="1s"/>
    <animate attributeType="XML" attributeName="stroke-opacity" values="1"
        begin="41" dur="4s"/>
  </use>

  <use xlink:href="#AhBubble" x="475" y="180"  stroke-opacity="0" fill-opacity="0" >
      <animate attributeType="XML" attributeName="fill-opacity" values="1"
          begin="41" dur="2s"/>
      <animate attributeType="XML" attributeName="stroke-opacity" values="1"
          begin="41" dur="2s"/>
  </use>

  <!-- scene 4 -->

  <path id="astroPath" d="m 0,0 l 100,200" stroke-opacity="0" fill-opacity="0" />
  <use xlink:href="#astroRunningOut" x="160" y="100" stroke-opacity="0" fill-opacity="0" >
    <animate attributeType="XML" attributeName="fill-opacity" values="1"
        begin="46" dur="14s"/>
    <animate attributeType="XML" attributeName="stroke-opacity" values="1"
        begin="46" dur="14s"/>
    <animate attributeType="XML" attributeName="fill-opacity" from="0" to="1"
        begin="45" dur="1s"/>
    <animate attributeType="XML" attributeName="stroke-opacity" from="0" to="1"
        begin="45" dur="1s"/>
  </use>

  <!-- scene END -->

  <rect x="0" y="0" width="800" height="500" id="fadeOut" fill-opacity="0" >
    <animate attributeType="XML" attributeName="fill-opacity" from="0" to="1"
        begin="56" dur="1s" />
    <animate attributeType="XML" attributeName="fill-opacity" values="1"
        begin="57" dur="indefinite"/>
  </rect>

  <text x="55" y="55" fill="white"  transform="scale(5,5)" fill-opacity="0"> END !
    <animate attributeType="XML" attributeName="fill-opacity" from="0" to="1"
        begin="56" dur="1s" />
    <animate attributeType="XML" attributeName="fill-opacity" values="1"
        begin="57" dur="indefinite"/>
  </text>

</svg>
